<svg width="64" height="64" viewBox="0 0 64 64" fill="none" xmlns="http://www.w3.org/2000/svg">
  <path
    d="M12.9706 16.3627L19.1417 10.1916L40.7406 14.9913L46.7548 8.97708C46.8594 8.87255 46.9639 8.77586 47.0785 8.68254C48.2558 7.72429 55.3481 2.17165 58.2254 5.04898C61.1027 7.92631 55.5501 15.0186 54.5918 16.1959C54.4985 16.3105 54.4018 16.415 54.2973 16.5196L48.283 22.5338L53.0828 44.1327L46.9117 50.3038L37.1065 33.1447L24.2843 44.647L25.8271 52.5323L20.513 57.8463L15.5419 47.7325L5.42809 42.7613L10.7421 37.4473L18.6274 38.9901L30.1297 26.1679L12.9706 16.3627Z"
    stroke="currentColor" stroke-width="2"/>
</svg>
