<svg width="64" height="64" viewBox="0 0 64 64" fill="none" xmlns="http://www.w3.org/2000/svg">
<path d="M5.79559 12.777C5.49606 13.1364 5.33203 13.5895 5.33203 14.0574V58.3333C5.33203 59.9901 6.67518 61.3333 8.33203 61.3333H55.6654C57.3222 61.3333 58.6654 59.9901 58.6654 58.3333V14.0574C58.6654 13.5895 58.5013 13.1364 58.2018 12.777L50.3762 3.38622C49.9962 2.93023 49.4333 2.66659 48.8397 2.66659H15.1577C14.5641 2.66659 14.0012 2.93023 13.6212 3.38622L5.79559 12.777Z" stroke="currentColor" stroke-width="2"/>
<path d="M5.33203 14.6667H58.6654" stroke="currentColor" stroke-width="2"/>
<path d="M42.6654 26.6667C42.6654 32.5578 37.8897 37.3334 31.9987 37.3334C26.1077 37.3334 21.332 32.5578 21.332 26.6667" stroke="currentColor" stroke-width="2" stroke-linecap="round"/>
</svg>
