<svg width="43" height="42" viewBox="0 0 43 42" fill="none" xmlns="http://www.w3.org/2000/svg">
<path d="M1.51172 12.25V8.25C1.51172 6.59315 2.85486 5.25 4.51172 5.25H37.0117C38.6686 5.25 40.0117 6.59315 40.0117 8.25V33.75C40.0117 35.4069 38.6686 36.75 37.0117 36.75H26.0117" stroke="#292E32" stroke-width="2" stroke-linecap="round" stroke-linejoin="round"/>
<path d="M1.18338 20.3996C3.2517 20.3996 5.29976 20.807 7.21064 21.5985C9.12152 22.39 10.8578 23.5502 12.3203 25.0127C13.7828 26.4752 14.943 28.2115 15.7345 30.1224C16.526 32.0332 16.9334 34.0813 16.9334 36.1496" stroke="#292E32" stroke-width="2" stroke-linecap="round"/>
<path d="M1.18547 28.3028C2.15521 28.3028 3.11546 28.4938 4.01138 28.8649C4.9073 29.236 5.72136 29.78 6.40706 30.4657C7.09277 31.1514 7.63671 31.9654 8.00781 32.8613C8.37891 33.7573 8.56992 34.7175 8.56992 35.6872" stroke="#292E32" stroke-width="2" stroke-linecap="round"/>
</svg>
