<svg width="32" height="32" viewBox="0 0 32 32" fill="none" xmlns="http://www.w3.org/2000/svg">
<path d="M1.33398 5.83325C1.33398 5.55711 1.54608 5.33325 1.82222 5.33325C5.12564 5.33325 24.252 5.33325 30.1738 5.33325C30.4499 5.33325 30.6673 5.55711 30.6673 5.83325V20.8333C30.6673 21.1094 30.4499 21.3333 30.1738 21.3333C24.252 21.3333 5.12565 21.3333 1.82222 21.3333C1.54608 21.3333 1.33398 21.1094 1.33398 20.8333V5.83325Z" stroke="black" stroke-width="2"/>
<path d="M16 21.3333V26.6666" stroke="black" stroke-width="2" stroke-linecap="round"/>
<path d="M20.9516 28.9246C21.4622 29.1351 22.0467 28.8918 22.2572 28.3812C22.4677 27.8706 22.2244 27.2861 21.7138 27.0756L20.9516 28.9246ZM10.2849 27.0756C9.77429 27.2861 9.531 27.8706 9.74149 28.3812C9.95199 28.8918 10.5365 29.1351 11.0471 28.9246L10.2849 27.0756ZM21.3327 28.0001C21.7138 27.0756 21.7137 27.0755 21.7136 27.0755C21.7135 27.0754 21.7134 27.0754 21.7132 27.0753C21.713 27.0752 21.7127 27.0751 21.7124 27.075C21.7117 27.0747 21.7109 27.0743 21.7098 27.0739C21.7077 27.073 21.7048 27.0718 21.7011 27.0703C21.6937 27.0674 21.6834 27.0631 21.67 27.0578C21.6434 27.047 21.6051 27.0317 21.5562 27.0124C21.4583 26.9738 21.3178 26.9195 21.1432 26.8545C20.7946 26.7248 20.3071 26.5519 19.7503 26.3786C18.6669 26.0414 17.2104 25.6667 15.9993 25.6667V27.6667C16.8873 27.6667 18.0975 27.9588 19.156 28.2882C19.6701 28.4483 20.1224 28.6087 20.4459 28.729C20.6073 28.789 20.7358 28.8388 20.823 28.8732C20.8666 28.8904 20.8999 28.9037 20.9216 28.9125C20.9325 28.9169 20.9406 28.9201 20.9456 28.9222C20.9481 28.9232 20.9499 28.9239 20.9509 28.9243C20.9514 28.9245 20.9517 28.9247 20.9518 28.9247C20.9519 28.9247 20.9519 28.9247 20.9518 28.9247C20.9518 28.9247 20.9517 28.9247 20.9517 28.9247C20.9516 28.9246 20.9516 28.9246 21.3327 28.0001ZM15.9993 25.6667C14.7883 25.6667 13.3318 26.0414 12.2484 26.3786C11.6916 26.5519 11.2041 26.7248 10.8555 26.8545C10.6809 26.9195 10.5404 26.9738 10.4425 27.0124C10.3936 27.0317 10.3553 27.047 10.3287 27.0578C10.3153 27.0631 10.3049 27.0674 10.2976 27.0703C10.2939 27.0718 10.291 27.073 10.2889 27.0739C10.2878 27.0743 10.287 27.0747 10.2863 27.075C10.286 27.0751 10.2857 27.0752 10.2854 27.0753C10.2853 27.0754 10.2852 27.0754 10.2851 27.0755C10.285 27.0755 10.2849 27.0756 10.666 28.0001C11.0471 28.9246 11.0471 28.9246 11.047 28.9247C11.047 28.9247 11.0469 28.9247 11.0469 28.9247C11.0468 28.9247 11.0468 28.9247 11.0469 28.9247C11.047 28.9247 11.0473 28.9245 11.0478 28.9243C11.0488 28.9239 11.0506 28.9232 11.0531 28.9222C11.0581 28.9201 11.0662 28.9169 11.0771 28.9125C11.0988 28.9037 11.1321 28.8904 11.1756 28.8732C11.2629 28.8388 11.3914 28.789 11.5528 28.729C11.8763 28.6087 12.3286 28.4483 12.8427 28.2882C13.9012 27.9588 15.1114 27.6667 15.9993 27.6667V25.6667Z" fill="black"/>
</svg>
