<svg width="64" height="64" viewBox="0 0 64 64" fill="none" xmlns="http://www.w3.org/2000/svg">
  <path
    d="M15.5 59.5C11.469 59.5 7.70446 59.5 4.5 59.5V23.5H59.5V59.5C59.5 59.5 43.5964 59.5 27.5 59.5M15.5 59.5V41.5H27.5V59.5M15.5 59.5C19.3427 59.5 23.4275 59.5 27.5 59.5M40 36.5V45.5H50V36.5H40Z"
    stroke="currentColor" stroke-width="2"/>
  <path
    d="M55 5H9L2 23C2 27.1421 5.35786 30.5 9.5 30.5C13.6421 30.5 17 27.1421 17 23C17 27.1421 20.3579 30.5 24.5 30.5C28.6421 30.5 32 27.1421 32 23C32 27.1421 35.3579 30.5 39.5 30.5C43.6421 30.5 47 27.1421 47 23C47 27.1421 50.3579 30.5 54.5 30.5C58.6421 30.5 62 27.1421 62 23L55 5Z"
    fill="white"/>
  <path
    d="M9 5V4C8.58759 4 8.21747 4.25318 8.068 4.63755L9 5ZM55 5L55.932 4.63755C55.7825 4.25318 55.4124 4 55 4V5ZM62 23H63C63 22.876 62.9769 22.7531 62.932 22.6376L62 23ZM47 23H48C48 22.9668 47.9983 22.9336 47.995 22.9005L47 23ZM17 23L16.005 22.9005C16.0017 22.9336 16 22.9668 16 23H17ZM2 23L1.068 22.6376C1.02306 22.7531 1 22.876 1 23H2ZM18.995 13.0995C19.05 12.55 18.649 12.0599 18.0995 12.005C17.55 11.95 17.0599 12.351 17.005 12.9005L18.995 13.0995ZM33 13C33 12.4477 32.5523 12 32 12C31.4477 12 31 12.4477 31 13H33ZM46.995 12.9005C46.9401 12.351 46.45 11.95 45.9005 12.005C45.351 12.0599 44.95 12.55 45.005 13.0995L46.995 12.9005ZM9 6H55V4H9V6ZM54.068 5.36245L61.068 23.3624L62.932 22.6376L55.932 4.63755L54.068 5.36245ZM61 23C61 26.5899 58.0899 29.5 54.5 29.5V31.5C59.1944 31.5 63 27.6944 63 23H61ZM54.5 29.5C50.9101 29.5 48 26.5899 48 23H46C46 27.6944 49.8056 31.5 54.5 31.5V29.5ZM46 23C46 26.5899 43.0899 29.5 39.5 29.5V31.5C44.1944 31.5 48 27.6944 48 23H46ZM39.5 29.5C35.9101 29.5 33 26.5899 33 23H31C31 27.6944 34.8056 31.5 39.5 31.5V29.5ZM31 23C31 26.5899 28.0899 29.5 24.5 29.5V31.5C29.1944 31.5 33 27.6944 33 23H31ZM24.5 29.5C20.9101 29.5 18 26.5899 18 23H16C16 27.6944 19.8056 31.5 24.5 31.5V29.5ZM16 23C16 26.5899 13.0899 29.5 9.5 29.5V31.5C14.1944 31.5 18 27.6944 18 23H16ZM9.5 29.5C5.91015 29.5 3 26.5899 3 23H1C1 27.6944 4.80558 31.5 9.5 31.5V29.5ZM2.932 23.3624L9.932 5.36245L8.068 4.63755L1.068 22.6376L2.932 23.3624ZM17.995 23.0995L18.995 13.0995L17.005 12.9005L16.005 22.9005L17.995 23.0995ZM33 23V13H31V23H33ZM47.995 22.9005L46.995 12.9005L45.005 13.0995L46.005 23.0995L47.995 22.9005Z"
    fill="currentColor"/>
</svg>
