<svg width="33" height="32" viewBox="0 0 33 32" fill="none" xmlns="http://www.w3.org/2000/svg">
<path d="M1.33398 12.7669C3.31497 10.786 5.66674 9.21456 8.25502 8.14246C10.8433 7.07036 13.6174 6.51856 16.4189 6.51855C19.2205 6.51855 21.9946 7.07036 24.5828 8.14246C27.1711 9.21456 29.5229 10.786 31.5039 12.7669" stroke="black" stroke-width="2" stroke-linecap="round"/>
<path d="M6.04688 17.4811C7.4088 16.1191 9.02564 15.0388 10.8051 14.3017C12.5845 13.5647 14.4917 13.1853 16.4178 13.1853C18.3438 13.1853 20.251 13.5647 22.0305 14.3017C23.8099 15.0388 25.4268 16.1191 26.7887 17.4811" stroke="black" stroke-width="2" stroke-linecap="round"/>
<path d="M10.7617 22.195C11.5046 21.4521 12.3865 20.8628 13.3571 20.4608C14.3277 20.0587 15.368 19.8518 16.4186 19.8518C17.4691 19.8518 18.5094 20.0587 19.48 20.4608C20.4506 20.8628 21.3326 21.4521 22.0754 22.1949" stroke="black" stroke-width="2" stroke-linecap="round"/>
</svg>
