<svg viewBox="0 0 140 20" fill="none" xmlns="http://www.w3.org/2000/svg">
  <path d="M7.9592 15.6884H4.61611V2.70715H0V0H12.5864V2.70715H7.9592V15.6884Z" fill="currentColor"/>
  <path
    d="M16.018 13.5792C16.7339 13.5792 17.339 13.3763 17.8335 12.9704C18.3353 12.5573 18.5862 12.039 18.5862 11.4157V10.5677L16.0844 10.7199C15.4793 10.7634 15.0107 10.912 14.6786 11.1656C14.3539 11.4193 14.1915 11.7527 14.1915 12.1659C14.1915 12.6008 14.3576 12.945 14.6897 13.1987C15.0217 13.4524 15.4645 13.5792 16.018 13.5792ZM14.9553 15.8733C13.8114 15.8733 12.8631 15.5435 12.1104 14.8839C11.3576 14.2243 10.9813 13.3763 10.9813 12.3398C10.9813 11.2816 11.3798 10.4517 12.1768 9.85012C12.9738 9.24853 14.114 8.90425 15.5974 8.81727L18.5862 8.64332V7.8714C18.5862 7.33504 18.4054 6.91465 18.0438 6.61024C17.6896 6.30582 17.2062 6.15361 16.5937 6.15361C16.0033 6.15361 15.5199 6.28407 15.1435 6.545C14.7745 6.80593 14.5494 7.15746 14.4683 7.5996H11.5126C11.5717 6.4544 12.0698 5.5339 13.007 4.83808C13.9443 4.13502 15.1878 3.78349 16.7376 3.78349C18.2578 3.78349 19.4755 4.13865 20.3906 4.84896C21.3057 5.55927 21.7633 6.50151 21.7633 7.6757V15.6884H18.6416V13.9054H18.5752C18.2504 14.5142 17.756 14.9962 17.0918 15.3514C16.4276 15.6993 15.7155 15.8733 14.9553 15.8733Z"
    fill="currentColor"/>
  <path
    d="M30.7852 3.84872C32.2907 3.84872 33.4751 4.38146 34.3386 5.44692C35.2094 6.51239 35.6448 7.98374 35.6448 9.86099C35.6448 11.731 35.2168 13.2024 34.3607 14.2751C33.5047 15.3405 32.3313 15.8733 30.8405 15.8733C29.9918 15.8733 29.2428 15.6848 28.5933 15.3079C27.9513 14.9238 27.4716 14.3983 27.1543 13.7315H27.0878V19.4937H23.8555V4.03355H27.0436V6.06663H27.11C27.4347 5.37082 27.9144 4.82721 28.5491 4.43582C29.1911 4.04442 29.9365 3.84872 30.7852 3.84872ZM29.7003 13.3183C30.5047 13.3183 31.1431 13.0067 31.6154 12.3833C32.0951 11.76 32.3349 10.9192 32.3349 9.86099C32.3349 8.80277 32.0951 7.962 31.6154 7.33867C31.1431 6.70808 30.5047 6.39279 29.7003 6.39279C28.9107 6.39279 28.276 6.71171 27.7963 7.34954C27.3166 7.98012 27.0768 8.81727 27.0768 9.86099C27.0768 10.912 27.3129 11.7527 27.7852 12.3833C28.2649 13.0067 28.9033 13.3183 29.7003 13.3183Z"
    fill="currentColor"/>
  <path
    d="M37.5156 15.6884V4.38146H39.3311V6.18622H39.3753C39.6558 5.57014 40.0801 5.08452 40.6484 4.72936C41.2166 4.36696 41.8808 4.18576 42.6409 4.18576C43.4232 4.18576 44.0948 4.37421 44.6557 4.75111C45.2165 5.12076 45.6224 5.64987 45.8733 6.33843H45.9176C46.2349 5.66436 46.7109 5.13888 47.3456 4.76198C47.9877 4.37783 48.7146 4.18576 49.5264 4.18576C50.6629 4.18576 51.5706 4.52279 52.2495 5.19686C52.9359 5.86368 53.279 6.75882 53.279 7.88227V15.6884H51.3529V8.31715C51.3529 7.54161 51.1426 6.94002 50.7219 6.51239C50.3086 6.0775 49.7219 5.86006 48.9618 5.86006C48.2017 5.86006 47.5781 6.11012 47.091 6.61024C46.6039 7.1031 46.3604 7.73369 46.3604 8.50198V15.6884H44.4343V8.11058C44.4343 7.42927 44.2202 6.88566 43.7922 6.47977C43.3642 6.06663 42.7922 5.86006 42.0764 5.86006C41.3163 5.86006 40.6853 6.12099 40.1834 6.64285C39.689 7.16471 39.4418 7.81704 39.4418 8.59983V15.6884H37.5156Z"
    fill="currentColor"/>
  <path
    d="M60.5076 15.8841C58.8988 15.8841 57.6073 15.3586 56.6332 14.3077C55.659 13.2495 55.172 11.8252 55.172 10.0349C55.172 8.24467 55.659 6.82405 56.6332 5.77308C57.6073 4.71487 58.8988 4.18576 60.5076 4.18576C62.1091 4.18576 63.3969 4.71487 64.371 5.77308C65.3451 6.82405 65.8322 8.24467 65.8322 10.0349C65.8322 11.818 65.3451 13.2386 64.371 14.2968C63.3969 15.355 62.1091 15.8841 60.5076 15.8841ZM58.0391 13.1117C58.6516 13.8511 59.4744 14.2207 60.5076 14.2207C61.5408 14.2207 62.36 13.8547 62.9651 13.1226C63.5703 12.3833 63.8729 11.3541 63.8729 10.0349C63.8729 8.7158 63.5703 7.6902 62.9651 6.95814C62.36 6.21884 61.5408 5.84919 60.5076 5.84919C59.4744 5.84919 58.6516 6.21884 58.0391 6.95814C57.4339 7.69744 57.1313 8.72305 57.1313 10.0349C57.1313 11.3468 57.4339 12.3724 58.0391 13.1117Z"
    fill="currentColor"/>
  <path
    d="M73.5036 15.8841C72.6771 15.8841 71.9391 15.6993 71.2896 15.3297C70.6476 14.96 70.1384 14.4418 69.762 13.7749H69.7177V15.6884H67.8801V0H69.8063V6.2732H69.8506C70.2122 5.62087 70.714 5.10989 71.3561 4.74023C72.0055 4.37058 72.7324 4.18576 73.5368 4.18576C74.9906 4.18576 76.164 4.71849 77.057 5.78396C77.95 6.84942 78.3965 8.26642 78.3965 10.0349C78.3965 11.8107 77.95 13.2313 77.057 14.2968C76.164 15.355 74.9796 15.8841 73.5036 15.8841ZM73.1272 5.84919C72.1457 5.84919 71.345 6.23696 70.7251 7.0125C70.1052 7.7808 69.7952 8.78828 69.7952 10.0349C69.7952 11.2889 70.1052 12.3 70.7251 13.0683C71.345 13.8366 72.1457 14.2207 73.1272 14.2207C74.1457 14.2207 74.9501 13.8474 75.5404 13.1009C76.1308 12.3471 76.426 11.3251 76.426 10.0349C76.426 8.75204 76.1308 7.73369 75.5404 6.97989C74.9501 6.22609 74.1457 5.84919 73.1272 5.84919Z"
    fill="currentColor"/>
  <path
    d="M80.4554 15.6884V4.38146H82.3816V15.6884H80.4554ZM81.4185 2.47884C81.0938 2.47884 80.8134 2.36287 80.5772 2.13093C80.3411 1.89899 80.223 1.62357 80.223 1.30465C80.223 0.978489 80.3411 0.703062 80.5772 0.478372C80.8134 0.246434 81.0938 0.130465 81.4185 0.130465C81.7506 0.130465 82.0347 0.246434 82.2709 0.478372C82.507 0.703062 82.6251 0.978489 82.6251 1.30465C82.6251 1.62357 82.507 1.89899 82.2709 2.13093C82.0347 2.36287 81.7506 2.47884 81.4185 2.47884Z"
    fill="currentColor"/>
  <path d="M85.0826 15.6884V0H87.0088V15.6884H85.0826Z" fill="currentColor"/>
  <path
    d="M94.2263 5.82744C93.3333 5.82744 92.5917 6.13186 92.0013 6.7407C91.4183 7.34229 91.0972 8.11783 91.0382 9.06733H97.2926C97.2705 8.11058 96.979 7.33142 96.4181 6.72983C95.8573 6.12824 95.1266 5.82744 94.2263 5.82744ZM97.2484 12.4486H99.1413C98.9716 13.4488 98.4402 14.2714 97.5472 14.9165C96.6617 15.5616 95.5953 15.8841 94.3481 15.8841C92.7024 15.8841 91.4072 15.3623 90.4626 14.3186C89.5179 13.2748 89.0456 11.8615 89.0456 10.0784C89.0456 8.30991 89.5179 6.88566 90.4626 5.8057C91.4146 4.72574 92.6802 4.18576 94.2595 4.18576C95.8093 4.18576 97.0343 4.69675 97.9347 5.71872C98.835 6.7407 99.2852 8.11058 99.2852 9.82838V10.5459H91.0271V10.6547C91.0271 11.7419 91.3297 12.6116 91.9348 13.264C92.54 13.9163 93.3592 14.2424 94.3923 14.2424C95.1156 14.2424 95.7318 14.0794 96.241 13.7532C96.7502 13.427 97.086 12.9922 97.2484 12.4486Z"
    fill="currentColor"/>
  <path
    d="M103.757 15.4384C103.514 15.6776 103.215 15.7972 102.861 15.7972C102.507 15.7972 102.208 15.6776 101.964 15.4384C101.721 15.1992 101.599 14.9056 101.599 14.5577C101.599 14.2098 101.721 13.9163 101.964 13.6771C102.208 13.4379 102.507 13.3183 102.861 13.3183C103.215 13.3183 103.514 13.4379 103.757 13.6771C104.001 13.9163 104.123 14.2098 104.123 14.5577C104.123 14.9056 104.001 15.1992 103.757 15.4384Z"
    fill="currentColor"/>
  <path
    d="M111.097 15.8841C109.488 15.8841 108.196 15.3586 107.222 14.3077C106.248 13.2495 105.761 11.8252 105.761 10.0349C105.761 8.24467 106.248 6.82405 107.222 5.77308C108.196 4.71487 109.488 4.18576 111.097 4.18576C112.698 4.18576 113.986 4.71487 114.96 5.77308C115.934 6.82405 116.421 8.24467 116.421 10.0349C116.421 11.818 115.934 13.2386 114.96 14.2968C113.986 15.355 112.698 15.8841 111.097 15.8841ZM108.628 13.1117C109.241 13.8511 110.064 14.2207 111.097 14.2207C112.13 14.2207 112.949 13.8547 113.554 13.1226C114.159 12.3833 114.462 11.3541 114.462 10.0349C114.462 8.7158 114.159 7.6902 113.554 6.95814C112.949 6.21884 112.13 5.84919 111.097 5.84919C110.064 5.84919 109.241 6.21884 108.628 6.95814C108.023 7.69744 107.72 8.72305 107.72 10.0349C107.72 11.3468 108.023 12.3724 108.628 13.1117Z"
    fill="currentColor"/>
  <path
    d="M118.37 15.6884V4.38146H120.185V6.18622H120.229C120.561 5.55564 121.037 5.0664 121.657 4.71849C122.277 4.36334 123.019 4.18576 123.882 4.18576C125.137 4.18576 126.115 4.55903 126.816 5.30558C127.517 6.04489 127.867 7.05962 127.867 8.34977V15.6884H125.941V8.68681C125.941 7.7663 125.72 7.06686 125.277 6.58849C124.834 6.10287 124.174 5.86006 123.296 5.86006C122.388 5.86006 121.661 6.14998 121.115 6.72983C120.569 7.30967 120.296 8.07797 120.296 9.03471V15.6884H118.37Z"
    fill="currentColor"/>
  <path
    d="M134.941 5.82744C134.048 5.82744 133.306 6.13186 132.716 6.7407C132.133 7.34229 131.812 8.11783 131.753 9.06733H138.007C137.985 8.11058 137.694 7.33142 137.133 6.72983C136.572 6.12824 135.841 5.82744 134.941 5.82744ZM137.963 12.4486H139.856C139.686 13.4488 139.155 14.2714 138.262 14.9165C137.376 15.5616 136.31 15.8841 135.063 15.8841C133.417 15.8841 132.122 15.3623 131.177 14.3186C130.233 13.2748 129.76 11.8615 129.76 10.0784C129.76 8.30991 130.233 6.88566 131.177 5.8057C132.129 4.72574 133.395 4.18576 134.974 4.18576C136.524 4.18576 137.749 4.69675 138.649 5.71872C139.55 6.7407 140 8.11058 140 9.82838V10.5459H131.742V10.6547C131.742 11.7419 132.044 12.6116 132.65 13.264C133.255 13.9163 134.074 14.2424 135.107 14.2424C135.83 14.2424 136.447 14.0794 136.956 13.7532C137.465 13.427 137.801 12.9922 137.963 12.4486Z"
    fill="currentColor"/>
</svg>
