<svg xmlns="http://www.w3.org/2000/svg" fill="none" viewBox="0 0 868 144"><path fill="#005F87" d="M88.8379 41.7244h31.8371c3.65 0 7.151 1.6907 9.732 4.7 2.581 3.0094 4.031 7.091 4.031 11.3468v28.4579c.002 2.3224-.429 4.6175-1.264 6.726-.835 2.1085-2.053 3.9797-3.571 5.4837-2.486 2.4792-5.652 3.8392-8.924 3.8322H88.8417l-.0038-60.5466ZM868 79.3965H134.441V60.7663H868v18.6302Z"/><path fill="#005F87" d="M14.6289 10.0917H78.227c2.3357 0 4.6484.5364 6.8062 1.5787s4.1183 2.57 5.7696 4.4958c1.6514 1.9259 2.9612 4.2122 3.8547 6.7283.8934 2.5162 1.353 5.2129 1.3525 7.9361v82.3384c0 5.499-1.8735 10.773-5.2085 14.661-3.3349 3.889-7.8581 6.073-12.5745 6.073H14.6289V10.0917ZM.621094 141.283V2.72714C.621094 1.2237 1.66641.00488281 2.95583.00488281H12.287c1.2894 0 2.3347 1.21881719 2.3347 2.72225719V141.283c0 1.503-1.0453 2.722-2.3347 2.722H2.95583c-1.28942 0-2.334736-1.219-2.334736-2.722Z"/><path fill="#005F87" d="M14.6289 10.0917H78.227c2.3357 0 4.6484.5364 6.8062 1.5787s4.1183 2.57 5.7696 4.4958c1.6514 1.9259 2.9612 4.2122 3.8547 6.7283.8934 2.5162 1.353 5.2129 1.3525 7.9361v82.3384c0 5.499-1.8735 10.773-5.2085 14.661-3.3349 3.889-7.8581 6.073-12.5745 6.073-5.3068-88.9061-63.5981-97.0817-63.5981-97.0817V10.0917Z"/><path fill="#232851" d="M19.748 10.0916V133.903h-5.1263V10.0916h5.1263Zm21.7618-.0001h36.7143c2.3356 0 4.6484.5364 6.8062 1.5787 2.1577 1.0423 4.1183 2.57 5.7696 4.4958 1.6514 1.9259 2.9612 4.2122 3.8546 6.7283.8935 2.5162 1.3531 5.2129 1.3526 7.9361v57.8024c-.0077-58.371-54.4973-78.5413-54.4973-78.5413Z"/><path fill="#232851" d="M99.3242 41.7284v60.5466h-3.3254V41.7284h3.3254Z"/><path fill="#232851" d="M95.998 41.7241h24.676c3.65 0 7.15 1.6906 9.731 4.7 2.581 3.0093 4.031 7.0909 4.031 11.3468v28.4579c.003 2.3223-.428 4.6175-1.263 6.7259-.835 2.1085-2.054 3.9798-3.571 5.4838 4.665-44.357-33.6001-51.1312-33.6001-51.1312l-.0039-5.5832Z"/></svg>