<svg xmlns="http://www.w3.org/2000/svg" fill="none" viewBox="0 0 905 144"><path fill="#005F87" d="M763.557 41.7244H731.72c-3.65 0-7.151 1.6907-9.732 4.7-2.581 3.0094-4.031 7.091-4.031 11.3468v28.4579c-.002 2.3224.429 4.6175 1.264 6.726.834 2.1085 2.053 3.9797 3.571 5.4837 2.486 2.4792 5.652 3.8392 8.924 3.8322h31.837l.004-60.5466Z"/><path fill="#005F87" d="M837.764 10.0917h-63.586c-2.336 0-4.649.5364-6.807 1.5787-2.157 1.0423-4.118 2.57-5.769 4.4958-1.652 1.9259-2.961 4.2122-3.855 6.7283-.893 2.5162-1.353 5.2129-1.352 7.9361v82.3384c0 5.499 1.873 10.773 5.208 14.661 3.335 3.889 7.858 6.073 12.575 6.073h63.586V10.0917Zm.013 131.1913V2.72714c0-1.50344 1.046-2.72225719 2.335-2.72225719h9.331c1.29 0 2.335 1.21881719 2.335 2.72225719V141.283c0 1.503-1.045 2.722-2.335 2.722h-9.331c-1.289 0-2.335-1.219-2.335-2.722Z"/><path fill="#232851" d="M851.777 90.5809v21.1021h43.281c1.188 0 2.365-.273 3.463-.804 1.098-.53 2.096-1.308 2.936-2.288.84-.98 1.506-2.143 1.961-3.423.454-1.281.688-2.653.687-4.038 0-2.7981-.953-5.4812-2.65-7.4594-1.696-1.9783-3.998-3.0897-6.397-3.0897h-43.281Zm52.328-47.7101c0-2.7976-.953-5.4808-2.649-7.4591-1.697-1.9782-3.998-3.0895-6.398-3.0895h-43.28v21.1016h43.28c2.4 0 4.701-1.1113 6.398-3.0895 1.696-1.9783 2.649-4.6614 2.649-7.4591v-.0044Z"/><path fill="#005F87" d="M837.764 10.0917h-63.586c-2.336 0-4.649.5364-6.807 1.5787-2.157 1.0423-4.118 2.57-5.769 4.4958-1.652 1.9259-2.961 4.2122-3.855 6.7283-.893 2.5162-1.353 5.2129-1.352 7.9361v82.3384c0 5.499 1.873 10.773 5.208 14.661 3.335 3.889 7.858 6.073 12.575 6.073 5.295-88.9061 63.586-97.0817 63.586-97.0817V10.0917Z"/><path fill="#232851" d="M837.777 10.0964V133.908h-5.126V10.0964h5.126Zm-26.891-.0049h-36.714c-2.336 0-4.649.5364-6.806 1.5787-2.158 1.0423-4.119 2.57-5.77 4.4958-1.651 1.9259-2.961 4.2122-3.855 6.7283-.893 2.5162-1.353 5.2129-1.352 7.9361v57.8024c.007-58.371 54.497-78.5413 54.497-78.5413Z"/><path fill="#232851" d="M756.398 41.7245v60.5465h-3.325V41.7245h3.325Z"/><path fill="#15172D" d="M858.113 90.5809v21.1021h-6.336V90.5809h6.336Zm.004-58.2588v21.1017h-6.336V32.3221h6.336Z"/><path fill="#232851" d="M756.395 41.7241H731.72c-3.65 0-7.151 1.6906-9.732 4.7-2.581 3.0093-4.031 7.0909-4.031 11.3468v28.4579c-.002 2.3223.429 4.6175 1.264 6.7259.834 2.1085 2.053 3.9798 3.571 5.4838-4.666-44.357 33.599-51.1312 33.599-51.1312l.004-5.5832Z"/><path fill="#005F87" d="M717.957 81.3125H0V62.6823h717.957v18.6302Z"/></svg>