<?xml version="1.0" encoding="utf-8"?><svg viewBox="0 0 64 64" xmlns="http://www.w3.org/2000/svg" xmlns:xlink="http://www.w3.org/1999/xlink"><style>:root>svg{display:none}:root>svg:target{display:block}</style><svg fill="none" viewBox="0 0 24 24" id="arrow" xmlns="http://www.w3.org/2000/svg"><path d="M14.283 5L21 12l-6.717 7M19.732 12.032H3.999" stroke="#292E32" stroke-width="2" stroke-linecap="square"/></svg><svg fill="none" viewBox="0 0 64 64" id="avia" xmlns="http://www.w3.org/2000/svg"><path d="M12.97 16.363l6.172-6.171 21.599 4.8 6.014-6.015c.104-.104.209-.201.323-.294 1.178-.959 8.27-6.511 11.147-3.634 2.878 2.877-2.675 9.97-3.633 11.147-.093.114-.19.219-.295.324l-6.014 6.014 4.8 21.599-6.171 6.17-9.806-17.158-12.822 11.502 1.543 7.885-5.314 5.314-4.971-10.113L5.428 42.76l5.314-5.314 7.885 1.543L30.13 26.168l-17.16-9.805z" stroke="currentColor" stroke-width="2"/></svg><svg fill="none" viewBox="0 0 64 64" id="bag" xmlns="http://www.w3.org/2000/svg"><path d="M5.796 12.777a2 2 0 00-.464 1.28v44.276a3 3 0 003 3h47.333a3 3 0 003-3V14.057a2 2 0 00-.463-1.28l-7.826-9.39a2 2 0 00-1.536-.72H15.158a2 2 0 00-1.537.72l-7.825 9.39zM5.332 14.667h53.333" stroke="currentColor" stroke-width="2"/><path d="M42.665 26.667c0 5.89-4.775 10.666-10.666 10.666s-10.667-4.775-10.667-10.666" stroke="currentColor" stroke-width="2" stroke-linecap="round"/></svg><svg fill="none" viewBox="0 0 64 64" id="case" xmlns="http://www.w3.org/2000/svg"><rect x="2.668" y="16" width="58.667" height="42.667" rx="3" stroke="currentColor" stroke-width="2"/><path d="M42.665 16V7.333a2 2 0 00-2-2H23.332a2 2 0 00-2 2V16M2.668 37.333s13.037 8 29.333 8c16.297 0 29.334-8 29.334-8" stroke="currentColor" stroke-width="2"/><path d="M29.332 32h5.333" stroke="currentColor" stroke-width="2" stroke-linecap="round" stroke-linejoin="round"/></svg><svg fill="none" viewBox="0 0 42 42" id="cash-money" xmlns="http://www.w3.org/2000/svg"><path d="M29.75 15.75v-3.5a3.5 3.5 0 00-3.5-3.5h-21a3.5 3.5 0 00-3.5 3.5v10.5a3.5 3.5 0 003.5 3.5H12" stroke="#262626" stroke-width="2"/><rect x="12.25" y="15.75" width="28" height="17.5" rx="3.5" stroke="#262626" stroke-width="2"/><circle cx="26.25" cy="24.5" r="3.5" stroke="#262626" stroke-width="2"/></svg><svg fill="none" viewBox="0 0 43 42" id="cast" xmlns="http://www.w3.org/2000/svg"><path d="M1.512 12.25v-4a3 3 0 013-3h32.5a3 3 0 013 3v25.5a3 3 0 01-3 3h-11" stroke="#292E32" stroke-width="2" stroke-linecap="round" stroke-linejoin="round"/><path d="M1.183 20.4a15.75 15.75 0 0115.75 15.75M1.185 28.303a7.385 7.385 0 017.385 7.384" stroke="#292E32" stroke-width="2" stroke-linecap="round"/></svg><svg fill="none" viewBox="0 0 24 24" id="chevron" xmlns="http://www.w3.org/2000/svg"><path d="M12 17a.999.999 0 00.71-.29l8-8a1.003 1.003 0 10-1.42-1.42L12 14.59l-7.29-7.3a1.004 1.004 0 00-1.42 1.42l8 8A.999.999 0 0012 17z" fill="#00FBEE"/></svg><svg fill="none" viewBox="0 0 42 42" id="chip" xmlns="http://www.w3.org/2000/svg"><rect x="7" y="7" width="28" height="28" rx="3" stroke="#fff" stroke-width="2" stroke-linecap="round" stroke-linejoin="round"/><rect x="15.75" y="15.75" width="10.5" height="10.5" rx=".5" stroke="#fff" stroke-width="2" stroke-linecap="round" stroke-linejoin="round"/><path d="M26.25 1.75V7M40.25 15.75H35M40.25 26.25H35M7 15.75H1.75M7 26.25H1.75M15.75 1.75V7M26.25 35v5.25M15.75 35v5.25" stroke="#fff" stroke-width="2" stroke-linecap="round" stroke-linejoin="round"/></svg><svg fill="none" viewBox="0 0 24 24" id="close" xmlns="http://www.w3.org/2000/svg"><path d="M19 6.41L17.59 5 12 10.59 6.41 5 5 6.41 10.59 12 5 17.59 6.41 19 12 13.41 17.59 19 19 17.59 13.41 12 19 6.41z" fill="currentColor"/></svg><svg fill="none" viewBox="0 0 64 64" id="connection" xmlns="http://www.w3.org/2000/svg"><path d="M8 37.333v21.334M24 32v26.667M40 21.333v37.334M56 5.333v53.334" stroke="currentColor" stroke-width="2" stroke-linecap="round" stroke-linejoin="round"/></svg><svg fill="none" viewBox="0 0 32 32" id="desktop" xmlns="http://www.w3.org/2000/svg"><path d="M1.334 5.833c0-.276.212-.5.488-.5h28.352c.276 0 .493.224.493.5v15c0 .276-.217.5-.493.5H1.822a.49.49 0 01-.488-.5v-15z" stroke="#000" stroke-width="2"/><path d="M16 21.333v5.334" stroke="#000" stroke-width="2" stroke-linecap="round"/><path d="M20.952 28.925a1 1 0 10.762-1.85l-.762 1.85zm-10.667-1.85a1 1 0 10.762 1.85l-.762-1.85zM21.333 28l.38-.924v-.001l-.003-.001a.506.506 0 00-.009-.004l-.031-.012-.114-.046a27.403 27.403 0 00-1.806-.634c-1.083-.337-2.54-.711-3.75-.711v2c.887 0 2.098.292 3.156.621a25.55 25.55 0 011.766.625l.024.01.005.001.382-.924zm-5.334-2.333c-1.21 0-2.667.374-3.75.712a27.403 27.403 0 00-1.92.679l-.031.012a.506.506 0 00-.01.004l-.002.001.38.925.381.925.006-.003.024-.01a13.18 13.18 0 01.476-.183c.323-.12.776-.28 1.29-.44 1.058-.33 2.268-.622 3.156-.622v-2z" fill="#000"/></svg><svg fill="none" viewBox="0 0 42 42" id="device-phone" xmlns="http://www.w3.org/2000/svg"><rect x="8.75" y="1.75" width="24.5" height="38.5" rx="5.25" stroke="#262626" stroke-width="2"/><path d="M19.25 33.25h3.5" stroke="#262626" stroke-width="2" stroke-linecap="round"/></svg><svg fill="none" viewBox="0 0 32 32" id="fb" xmlns="http://www.w3.org/2000/svg"><path d="M1.78 0h28.46C31.22 0 32 .78 32 1.76v28.48c0 .96-.78 1.76-1.76 1.76h-8.16V19.6h4.16l.62-4.82h-4.78V11.7c0-1.4.4-2.36 2.4-2.36h2.56V5.02c-.44-.06-1.96-.18-3.72-.18-3.7 0-6.22 2.24-6.22 6.38v3.56h-4.18v4.82h4.18V32H1.78A1.78 1.78 0 010 30.24V1.76C0 .78.8 0 1.78 0z" fill="currentColor"/></svg><svg fill="none" viewBox="0 0 64 64" id="icon-0" xmlns="http://www.w3.org/2000/svg"><path fill="url(#na)" fill-rule="evenodd" d="M32 26.936a4.955 4.955 0 100 9.91 4.955 4.955 0 000-9.91zm-2.973 4.955a2.973 2.973 0 115.946 0 2.973 2.973 0 01-5.946 0z" clip-rule="evenodd"/><path fill="url(#nb)" fill-rule="evenodd" d="M34.55 21.336c-1.154-1.926-3.946-1.926-5.1 0l-.7 1.167a.99.99 0 01-1.09.452l-1.32-.33c-2.179-.546-4.153 1.428-3.607 3.606l.33 1.32a.991.991 0 01-.451 1.09l-1.167.7c-1.927 1.155-1.927 3.946 0 5.1l1.167.7a.991.991 0 01.452 1.09l-.33 1.32c-.547 2.18 1.427 4.153 3.606 3.607l1.32-.33a.99.99 0 011.09.451l.7 1.167c1.154 1.927 3.946 1.927 5.1 0l.7-1.167a.99.99 0 011.09-.452l1.32.331c2.179.546 4.153-1.428 3.607-3.606l-.33-1.32a.991.991 0 01.451-1.091l1.167-.7c1.927-1.154 1.927-3.945 0-5.1l-1.167-.7a.991.991 0 01-.452-1.09l.33-1.32c.547-2.179-1.427-4.152-3.606-3.607l-1.32.331a.99.99 0 01-1.09-.452l-.7-1.167zm-3.4 1.019a.991.991 0 011.7 0l.7 1.167a2.973 2.973 0 003.272 1.356l1.32-.331a.991.991 0 011.202 1.202l-.33 1.32a2.973 2.973 0 001.355 3.273l1.167.7a.991.991 0 010 1.7l-1.167.699a2.973 2.973 0 00-1.355 3.273l.33 1.32a.991.991 0 01-1.202 1.202l-1.32-.331a2.973 2.973 0 00-3.273 1.356l-.699 1.167a.991.991 0 01-1.7 0l-.7-1.167a2.973 2.973 0 00-3.272-1.356l-1.32.33a.991.991 0 01-1.202-1.202l.33-1.32a2.973 2.973 0 00-1.355-3.272l-1.167-.7a.991.991 0 010-1.7l1.167-.7a2.973 2.973 0 001.355-3.272l-.33-1.32a.991.991 0 011.202-1.202l1.32.33c1.27.32 2.6-.231 3.272-1.355l.7-1.167z" clip-rule="evenodd"/><path stroke="url(#nc)" stroke-linecap="round" stroke-width="2" d="M17.755 58h9.28c2.367 0 3.786-2.638 2.515-4.635a3.016 3.016 0 00-1.508-1.214l-8.87-3.225a3 3 0 01-1.697-1.556l-5.903-12.715a1.63 1.63 0 00-.174-.292c-1.045-1.393-3.253-.394-2.896 1.31l2.903 13.874c.063.3.171.589.322.856l3.413 6.068A3 3 0 0017.754 58z"/><path stroke="url(#nd)" stroke-linecap="round" stroke-width="2" d="M46.245 58h-9.28c-2.367 0-3.786-2.638-2.515-4.635a3.016 3.016 0 011.508-1.214l8.87-3.225a3 3 0 001.697-1.556l5.903-12.715c.048-.103.106-.2.174-.292 1.045-1.393 3.253-.394 2.897 1.31l-2.904 13.874c-.063.3-.171.589-.322.856l-3.413 6.068A3 3 0 0146.246 58z"/><path stroke="url(#ne)" stroke-linecap="round" stroke-width="2" d="M53 27.105C50.605 17.843 42.158 11 32.105 11 21.732 11 13.068 18.288 11 28"/><defs><linearGradient id="na" x1="32" x2="32" y1="19.891" y2="43.891" gradientUnits="userSpaceOnUse"><stop stop-color="#00FBEE"/><stop offset="1" stop-color="#00FBEE" stop-opacity="0"/></linearGradient><linearGradient id="nb" x1="32" x2="32" y1="19.891" y2="43.891" gradientUnits="userSpaceOnUse"><stop stop-color="#00FBEE"/><stop offset="1" stop-color="#00FBEE" stop-opacity="0"/></linearGradient><linearGradient id="nc" x1="17.5" x2="17.5" y1="28.5" y2="58.5" gradientUnits="userSpaceOnUse"><stop stop-color="#00FBEE"/><stop offset="1" stop-color="#00FBEE" stop-opacity=".13"/></linearGradient><linearGradient id="nd" x1="46.5" x2="46.5" y1="28.5" y2="58.5" gradientUnits="userSpaceOnUse"><stop stop-color="#00FBEE"/><stop offset="1" stop-color="#00FBEE" stop-opacity=".13"/></linearGradient><linearGradient id="ne" x1="32" x2="32" y1="11" y2="28" gradientUnits="userSpaceOnUse"><stop stop-color="#00FBEE"/><stop offset="1" stop-color="#00FBEE"/></linearGradient></defs></svg><svg fill="none" viewBox="0 0 64 64" id="icon-1" xmlns="http://www.w3.org/2000/svg"><circle cx="32" cy="52" r="7" stroke="url(#oa)" stroke-width="2"/><path stroke="url(#ob)" stroke-linecap="round" stroke-width="2" d="M32 43.5V8m0 0l-4 5m4-5l4 5"/><path stroke="url(#oc)" stroke-linecap="round" stroke-width="2" d="M35 45l4.39-15.803A3 3 0 0142.28 27H54m0 0l-5 4.5m5-4.5l-5-4.5"/><path stroke="url(#od)" stroke-linecap="round" stroke-width="2" d="M29 44l-4.367-14.847A3 3 0 0021.755 27H10m0 0l5 4.5M10 27l5-4.5"/><defs><linearGradient id="oa" x1="32" x2="32" y1="44" y2="60" gradientUnits="userSpaceOnUse"><stop stop-color="#00FBEE"/><stop offset="1" stop-color="#00FBEE" stop-opacity="0"/></linearGradient><linearGradient id="ob" x1="32" x2="32" y1="8" y2="42.5" gradientUnits="userSpaceOnUse"><stop stop-color="#00FBEE"/><stop offset="1" stop-color="#00FBEE" stop-opacity="0"/></linearGradient><linearGradient id="oc" x1="43" x2="36" y1="22.5" y2="44.5" gradientUnits="userSpaceOnUse"><stop stop-color="#00FBEE"/><stop offset="1" stop-color="#00FBEE" stop-opacity="0"/></linearGradient><linearGradient id="od" x1="21" x2="29.5" y1="22.5" y2="44" gradientUnits="userSpaceOnUse"><stop stop-color="#00FBEE"/><stop offset="1" stop-color="#00FBEE" stop-opacity="0"/></linearGradient></defs></svg><svg fill="none" viewBox="0 0 32 32" id="li" xmlns="http://www.w3.org/2000/svg"><path d="M0 2.292C0 1.026 1.052 0 2.35 0h27.3C30.948 0 32 1.026 32 2.292v27.416C32 30.974 30.948 32 29.65 32H2.35C1.052 32 0 30.974 0 29.708V2.292zm9.886 24.496v-14.45H5.084v14.45h4.802zm-2.4-16.424c1.674 0 2.716-1.108 2.716-2.496-.03-1.418-1.04-2.496-2.684-2.496-1.644 0-2.718 1.08-2.718 2.496 0 1.388 1.042 2.496 2.654 2.496h.032zm9.816 16.424v-8.07c0-.432.032-.864.16-1.172.346-.862 1.136-1.756 2.464-1.756 1.738 0 2.432 1.324 2.432 3.268v7.73h4.802V18.5c0-4.44-2.368-6.504-5.528-6.504-2.548 0-3.69 1.4-4.33 2.386v.05h-.032l.032-.05v-2.044h-4.8c.06 1.356 0 14.45 0 14.45h4.8z" fill="currentColor"/></svg><svg fill="none" viewBox="0 0 24 24" id="login" xmlns="http://www.w3.org/2000/svg"><path d="M11 7L9.6 8.4l2.6 2.6H2v2h10.2l-2.6 2.6L11 17l5-5-5-5zm9 12h-8v2h8c1.1 0 2-.9 2-2V5c0-1.1-.9-2-2-2h-8v2h8v14z" fill="currentColor"/></svg><svg fill="none" viewBox="0 0 64 64" id="map" xmlns="http://www.w3.org/2000/svg"><path d="M2.668 13.333L21.335 2.667l21.333 10.666L61.335 2.667v48L42.668 61.333 21.335 50.667 2.668 61.333v-48z" stroke="currentColor" stroke-width="2" stroke-linecap="round" stroke-linejoin="round"/><path d="M42.668 13.333V60M21.332 4v46.667" stroke="currentColor" stroke-width="2"/></svg><svg fill="none" viewBox="0 0 64 64" id="mobile" xmlns="http://www.w3.org/2000/svg"><rect x="13.332" y="2.667" width="37.333" height="58.667" rx="3" stroke="currentColor" stroke-width="2"/><path d="M29.332 50.667h5.333" stroke="currentColor" stroke-width="2" stroke-linecap="round"/></svg><svg fill="none" viewBox="0 0 64 64" id="shop" xmlns="http://www.w3.org/2000/svg"><path d="M15.5 59.5h-11v-36h55v36h-32m-12 0v-18h12v18m-12 0h12m12.5-23v9h10v-9H40z" stroke="currentColor" stroke-width="2"/><path d="M55 5H9L2 23a7.5 7.5 0 0015 0 7.5 7.5 0 0015 0 7.5 7.5 0 0015 0 7.5 7.5 0 0015 0L55 5z" fill="#fff"/><path d="M9 5V4a1 1 0 00-.932.638L9 5zm46 0l.932-.362A1 1 0 0055 4v1zm7 18h1a1 1 0 00-.068-.362L62 23zm-15 0h1c0-.033-.002-.066-.005-.1L47 23zm-30 0l-.995-.1A1.003 1.003 0 0016 23h1zM2 23l-.932-.362A1 1 0 001 23h1zm16.995-9.9a1 1 0 10-1.99-.2l1.99.2zM33 13a1 1 0 10-2 0h2zm13.995-.1a1 1 0 10-1.99.2l1.99-.2zM9 6h46V4H9v2zm45.068-.638l7 18 1.864-.724-7-18-1.864.724zM61 23a6.5 6.5 0 01-6.5 6.5v2A8.5 8.5 0 0063 23h-2zm-6.5 6.5A6.5 6.5 0 0148 23h-2a8.5 8.5 0 008.5 8.5v-2zM46 23a6.5 6.5 0 01-6.5 6.5v2A8.5 8.5 0 0048 23h-2zm-6.5 6.5A6.5 6.5 0 0133 23h-2a8.5 8.5 0 008.5 8.5v-2zM31 23a6.5 6.5 0 01-6.5 6.5v2A8.5 8.5 0 0033 23h-2zm-6.5 6.5A6.5 6.5 0 0118 23h-2a8.5 8.5 0 008.5 8.5v-2zM16 23a6.5 6.5 0 01-6.5 6.5v2A8.5 8.5 0 0018 23h-2zm-6.5 6.5A6.5 6.5 0 013 23H1a8.5 8.5 0 008.5 8.5v-2zm-6.568-6.138l7-18-1.864-.724-7 18 1.864.724zm15.063-.262l1-10-1.99-.2-1 10 1.99.2zM33 23V13h-2v10h2zm14.995-.1l-1-10-1.99.2 1 10 1.99-.2z" fill="currentColor"/></svg><svg fill="none" viewBox="0 0 32 32" id="tw" xmlns="http://www.w3.org/2000/svg"><path d="M30.72 0H1.28C.572 0 0 .572 0 1.28v29.44C0 31.428.572 32 1.28 32h29.44c.708 0 1.28-.572 1.28-1.28V1.28C32 .572 31.428 0 30.72 0zm-6.108 11.588c.012.188.012.384.012.576 0 5.872-4.472 12.636-12.644 12.636a12.6 12.6 0 01-6.824-1.992c.36.04.704.056 1.072.056 2.08 0 3.992-.704 5.516-1.896a4.444 4.444 0 01-4.152-3.08c.684.1 1.3.1 2.004-.08a4.44 4.44 0 01-3.556-4.36v-.056c.588.332 1.28.536 2.004.564a4.445 4.445 0 01-1.98-3.696c0-.828.216-1.584.604-2.24a12.611 12.611 0 009.16 4.644C15.2 9.644 17.456 7.2 20.168 7.2c1.28 0 2.432.536 3.244 1.4a8.776 8.776 0 002.82-1.068 4.422 4.422 0 01-1.952 2.444 8.786 8.786 0 002.56-.692 9.31 9.31 0 01-2.228 2.304z" fill="currentColor"/></svg><svg fill="none" viewBox="0 0 33 32" id="wifi" xmlns="http://www.w3.org/2000/svg"><path d="M1.334 12.767a21.335 21.335 0 0130.17 0M6.047 17.481a14.666 14.666 0 0120.742 0M10.762 22.195a8 8 0 0111.313 0" stroke="#000" stroke-width="2" stroke-linecap="round"/></svg></svg>