<svg xmlns="http://www.w3.org/2000/svg" fill="none" viewBox="0 0 64 64">
  <path fill="url(#a)" fill-rule="evenodd"
        d="M32 26.9364c-2.7366 0-4.955 2.2184-4.955 4.955 0 2.7365 2.2184 4.9549 4.955 4.9549s4.955-2.2184 4.955-4.9549c0-2.7366-2.2184-4.955-4.955-4.955Zm-2.973 4.955c0-1.642 1.3311-2.973 2.973-2.973s2.973 1.331 2.973 2.973c0 1.6419-1.3311 2.9729-2.973 2.9729s-2.973-1.331-2.973-2.9729Z"
        clip-rule="evenodd"/>
  <path fill="url(#b)" fill-rule="evenodd"
        d="M34.5502 21.3362c-1.1544-1.9265-3.946-1.9265-5.1004 0l-.6994 1.1671c-.2244.3745-.6674.5581-1.0909.4519l-1.3199-.3307c-2.1785-.5459-4.1524 1.428-3.6065 3.6065l.3308 1.3198c.1061.4235-.0774.8666-.4519 1.091l-1.1672.6994c-1.9264 1.1544-1.9264 3.9459 0 5.1003l1.1672.6994c.3745.2244.558.6675.4519 1.091l-.3308 1.3198c-.5459 2.1785 1.428 4.1525 3.6065 3.6065l1.3199-.3307c.4235-.1061.8665.0774 1.0909.4519l.6994 1.1671c1.1544 1.9265 3.946 1.9265 5.1004 0l.6994-1.1671c.2244-.3745.6674-.558 1.0909-.4519l1.3199.3307c2.1785.546 4.1524-1.428 3.6065-3.6065l-.3308-1.3198c-.1061-.4235.0774-.8666.4519-1.091l1.1672-.6994c1.9264-1.1544 1.9264-3.9459 0-5.1003l-1.1672-.6994c-.3745-.2244-.558-.6675-.4519-1.091l.3308-1.3198c.5459-2.1785-1.428-4.1524-3.6065-3.6065l-1.3199.3307c-.4235.1062-.8665-.0774-1.0909-.4518l-.6994-1.1672Zm-3.4003 1.0188c.3848-.6422 1.3154-.6422 1.7002 0l.6994 1.1671c.6732 1.1235 2.0023 1.6741 3.2728 1.3557l1.3199-.3308c.7261-.182 1.3841.476 1.2021 1.2022l-.3307 1.3198c-.3184 1.2705.2322 2.5997 1.3556 3.2729l1.1672.6994c.6421.3848.6421 1.3153 0 1.7001l-1.1672.6994c-1.1234.6732-1.674 2.0024-1.3556 3.2729l.3307 1.3198c.182.7262-.476 1.3842-1.2021 1.2022l-1.3199-.3308c-1.2705-.3183-2.5996.2322-3.2728 1.3557l-.6994 1.1672c-.3848.6421-1.3154.6421-1.7002 0l-.6994-1.1672c-.6732-1.1235-2.0023-1.674-3.2728-1.3557l-1.3199.3308c-.7261.182-1.3841-.476-1.2021-1.2022l.3307-1.3198c.3184-1.2705-.2322-2.5997-1.3556-3.2729l-1.1672-.6994c-.6421-.3848-.6421-1.3153 0-1.7001l1.1672-.6994c1.1234-.6732 1.674-2.0024 1.3556-3.2729l-.3307-1.3198c-.182-.7262.476-1.3842 1.2021-1.2022l1.3199.3308c1.2705.3184 2.5996-.2322 3.2728-1.3557l.6994-1.1671Z"
        clip-rule="evenodd"/>
  <path stroke="url(#c)" stroke-linecap="round" stroke-width="2"
        d="M17.7545 58h9.2805c2.3673 0 3.7863-2.638 2.5154-4.6351-.355-.5579-.8873-.9874-1.5087-1.2134l-8.8706-3.2257c-.7497-.2726-1.3599-.8325-1.6958-1.556l-5.9034-12.715c-.0478-.1029-.1062-.2005-.1743-.2913-1.0449-1.3932-3.25286-.3942-2.89608 1.3104l2.90368 13.8732c.0628.3002.1713.5889.3217.8562l3.4129 6.0675C15.6712 57.4154 16.6707 58 17.7545 58Z"/>
  <path stroke="url(#d)" stroke-linecap="round" stroke-width="2"
        d="M46.2455 58H36.965c-2.3673 0-3.7863-2.638-2.5154-4.6351.355-.5579.8873-.9874 1.5087-1.2134l8.8706-3.2257c.7497-.2726 1.3599-.8325 1.6958-1.556l5.9034-12.715c.0478-.1029.1062-.2005.1743-.2913 1.0449-1.3932 3.2529-.3942 2.8961 1.3104l-2.9037 13.8732c-.0628.3002-.1713.5889-.3217.8562l-3.4129 6.0675C48.3288 57.4154 47.3293 58 46.2455 58Z"/>
  <path stroke="url(#e)" stroke-linecap="round" stroke-width="2"
        d="M53 27.1053C50.605 17.8435 42.1582 11 32.1054 11 21.7316 11 13.0678 18.2877 11 28"/>
  <defs>
    <linearGradient id="a" x1="32" x2="32" y1="19.8914" y2="43.8914" gradientUnits="userSpaceOnUse">
      <stop stop-color="#00FBEE"/>
      <stop offset="1" stop-color="#00FBEE" stop-opacity="0"/>
    </linearGradient>
    <linearGradient id="b" x1="32" x2="32" y1="19.8914" y2="43.8914" gradientUnits="userSpaceOnUse">
      <stop stop-color="#00FBEE"/>
      <stop offset="1" stop-color="#00FBEE" stop-opacity="0"/>
    </linearGradient>
    <linearGradient id="c" x1="17.5" x2="17.5" y1="28.5" y2="58.5" gradientUnits="userSpaceOnUse">
      <stop stop-color="#00FBEE"/>
      <stop offset="1" stop-color="#00FBEE" stop-opacity=".13"/>
    </linearGradient>
    <linearGradient id="d" x1="46.5" x2="46.5" y1="28.5" y2="58.5" gradientUnits="userSpaceOnUse">
      <stop stop-color="#00FBEE"/>
      <stop offset="1" stop-color="#00FBEE" stop-opacity=".13"/>
    </linearGradient>
    <linearGradient id="e" x1="32" x2="32" y1="11" y2="28" gradientUnits="userSpaceOnUse">
      <stop stop-color="#00FBEE"/>
      <stop offset="1" stop-color="#00FBEE"/>
    </linearGradient>
  </defs>
</svg>
