<svg width="8" height="43" viewBox="0 0 8 43" fill="none" xmlns="http://www.w3.org/2000/svg">
<path d="M4.35355 0.646447C4.15829 0.451185 3.84171 0.451184 3.64645 0.646447L0.464465 3.82843C0.269203 4.02369 0.269203 4.34027 0.464465 4.53553C0.659727 4.7308 0.97631 4.7308 1.17157 4.53553L4 1.70711L6.82843 4.53553C7.02369 4.7308 7.34027 4.7308 7.53553 4.53553C7.7308 4.34027 7.7308 4.02369 7.53553 3.82843L4.35355 0.646447ZM3.64644 42.8536C3.8417 43.0488 4.15828 43.0488 4.35354 42.8536L7.53553 39.6716C7.73079 39.4763 7.73079 39.1597 7.53553 38.9645C7.34026 38.7692 7.02368 38.7692 6.82842 38.9645L3.99999 41.7929L1.17157 38.9645C0.976303 38.7692 0.65972 38.7692 0.464458 38.9645C0.269196 39.1597 0.269196 39.4763 0.464458 39.6716L3.64644 42.8536ZM3.5 1L3.49999 42.5L4.49999 42.5L4.5 1L3.5 1Z" fill="url(#paint0_linear_713_3816)"/>
<defs>
<linearGradient id="paint0_linear_713_3816" x1="4" y1="60" x2="4" y2="3.50009" gradientUnits="userSpaceOnUse">
<stop stop-color="#292E32"/>
<stop offset="1" stop-color="#292E32" stop-opacity="0"/>
</linearGradient>
</defs>
</svg>
