<svg viewBox="0 0 98 98" fill="none" xmlns="http://www.w3.org/2000/svg">
  <g filter="url(#filter0_f_713_3461)">
    <path opacity="0.2"
          d="M35.8009 87.9671C41.7189 90.0049 48.0246 90.662 54.2356 89.8884C60.4466 89.1148 66.3984 86.9309 71.6357 83.5037C76.873 80.0765 81.2571 75.4968 84.4526 70.115C87.6481 64.7332 89.5703 58.6918 90.0723 52.4529L85.9813 52.1238C85.5296 57.7388 83.7995 63.176 80.9236 68.0196C78.0477 72.8633 74.102 76.985 69.3884 80.0694C64.6748 83.1539 59.3182 85.1195 53.7283 85.8157C48.1384 86.512 42.4633 85.9205 37.1371 84.0866L35.8009 87.9671Z"
          fill="#00FBEE"/>
    <path opacity="0.2"
          d="M15.9594 25.0377C12.2804 30.1014 9.80834 35.9394 8.73223 42.1052C7.65613 48.271 8.0045 54.6012 9.75071 60.6117C11.4969 66.6222 14.5947 72.1537 18.8071 76.783C23.0195 81.4124 28.2348 85.017 34.0543 87.321L35.5652 83.5051C30.3276 81.4314 25.6338 78.1873 21.8426 74.0209C18.0515 69.8544 15.2635 64.8761 13.6919 59.4667C12.1203 54.0572 11.8068 48.36 12.7753 42.8108C13.7438 37.2616 15.9687 32.0074 19.2797 27.4501L15.9594 25.0377Z"
          fill="#00FBEE"/>
    <path
      d="M90.1795 50.5938C90.482 41.9319 88.0345 33.3966 83.1879 26.2112C78.3413 19.0258 71.3443 13.5592 63.1999 10.5949C55.0554 7.63053 46.1816 7.32065 37.8502 9.70964C29.5188 12.0986 22.1575 17.0638 16.8215 23.8937L20.0556 26.4204C24.8581 20.2736 31.4832 15.8049 38.9814 13.6548C46.4797 11.5047 54.4661 11.7836 61.7962 14.4515C69.1262 17.1194 75.4234 22.0394 79.7854 28.5062C84.1473 34.9731 86.35 42.6549 86.0778 50.4505L90.1795 50.5938Z"
      fill="#00FBEE"/>
  </g>
  <defs>
    <filter id="filter0_f_713_3461" x="0.360481" y="0.359138" width="97.6052" height="97.6046"
            filterUnits="userSpaceOnUse" color-interpolation-filters="sRGB">
      <feFlood flood-opacity="0" result="BackgroundImageFix"/>
      <feBlend mode="normal" in="SourceGraphic" in2="BackgroundImageFix" result="shape"/>
      <feGaussianBlur stdDeviation="3.88031" result="effect1_foregroundBlur_713_3461"/>
    </filter>
  </defs>
</svg>
